<?xml version="1.0" encoding="UTF-8" standalone="no"?>
<!DOCTYPE svg PUBLIC "-//W3C//DTD SVG 20010904//EN"
              "http://www.w3.org/TR/2001/REC-SVG-20010904/DTD/svg10.dtd">

<svg xmlns="http://www.w3.org/2000/svg"
     width="4.99938in" height="1.9442in"
     viewBox="0 0 360 140">
  <path id="Selection"
        fill="rgb(0, 0, 0)" stroke="black" stroke-width="1"
        d="M 235.58,52.00
           C 235.58,52.00 233.54,64.00 233.54,64.00
             231.47,74.98 228.61,78.81 228.00,92.00
             232.73,91.15 237.18,90.56 242.00,91.30
             249.08,92.39 248.41,95.12 256.00,92.00
             257.37,102.27 242.88,93.65 235.00,94.09
             232.42,94.24 227.87,95.69 226.24,93.40
             224.04,90.94 225.85,81.16 226.24,78.00
             226.24,78.00 230.11,64.00 230.11,64.00
             232.40,53.95 233.40,43.79 237.00,34.00
             240.65,39.05 236.98,46.51 235.58,52.00 Z
           M 9.43,90.87
           C 8.10,89.29 7.63,87.96 7.14,86.00
             3.76,72.50 8.51,58.75 12.75,46.00
             13.90,42.53 16.22,36.81 20.04,35.66
             25.47,34.02 30.00,41.51 30.00,46.00
             27.99,44.50 23.30,39.27 21.17,39.62
             17.38,40.24 15.18,49.86 14.23,53.00
             10.76,64.51 7.63,70.56 9.89,83.00
             11.75,93.24 18.60,92.89 24.68,85.96
             24.68,85.96 29.00,80.00 29.00,80.00
             29.00,80.00 32.00,81.00 32.00,81.00
             28.14,88.86 18.02,101.12 9.43,90.87 Z
           M 110.41,42.11
           C 110.41,42.11 106.00,60.00 106.00,60.00
             106.00,60.00 115.00,58.00 115.00,58.00
             109.91,64.13 106.66,62.43 104.16,66.27
             102.06,69.50 100.82,80.83 100.44,85.00
             100.23,87.37 100.19,90.50 103.15,91.18
             106.18,91.87 114.13,85.76 116.89,84.00
             116.99,84.82 117.41,85.31 116.89,86.79
             115.88,88.87 103.82,98.84 98.74,92.69
             95.01,88.17 99.18,71.83 100.00,66.00
             96.02,67.12 94.44,67.53 91.00,65.00
             91.00,65.00 100.70,62.15 100.70,62.15
             100.70,62.15 109.00,39.00 109.00,39.00
             109.00,39.00 110.41,42.11 110.41,42.11 Z
           M 285.14,61.00
           C 285.78,63.38 284.62,65.68 284.26,68.00
             283.22,74.55 285.35,73.49 281.66,84.00
             279.78,89.35 277.26,94.06 271.00,94.85
             264.21,95.71 259.43,91.81 259.04,85.00
             258.71,79.14 261.45,61.70 264.72,57.06
             266.01,55.23 266.41,55.24 268.04,54.02
             274.35,51.87 283.11,53.54 285.14,61.00 Z
           M 342.00,53.48
           C 354.86,56.47 351.04,71.73 348.76,81.00
             347.53,86.00 344.46,93.28 338.99,94.69
             326.10,97.99 322.88,88.45 323.00,78.00
             323.11,68.25 325.72,56.83 336.00,53.48
             338.23,53.19 339.72,52.88 342.00,53.48 Z
           M 302.00,94.89
           C 299.31,95.17 295.48,95.15 293.24,93.40
             286.99,88.40 291.01,71.51 293.24,65.00
             295.06,59.49 297.61,54.57 304.00,54.06
             307.61,53.77 313.77,54.41 315.27,58.26
             316.25,60.32 315.42,63.79 315.27,66.00
             315.27,66.00 312.58,84.00 312.58,84.00
             310.74,97.57 308.65,115.32 294.00,120.87
             288.58,122.92 282.71,123.06 277.00,123.00
             270.15,122.92 257.05,120.09 255.49,112.01
             254.40,106.41 260.03,106.01 264.00,106.01
             271.98,106.01 273.51,108.94 281.00,110.49
             285.61,111.44 287.96,110.03 292.00,113.00
             276.40,117.43 272.43,106.49 258.00,110.00
             258.99,112.10 259.53,113.63 261.39,115.19
             269.87,122.30 290.93,121.47 298.91,113.87
             305.04,108.03 305.77,100.69 308.00,93.00
             305.60,94.11 304.72,94.61 302.00,94.89 Z
           M 39.80,69.00
           C 38.97,71.42 36.02,85.39 36.35,86.98
             38.04,94.98 45.38,90.08 48.24,85.98
             51.66,81.09 54.68,70.94 56.10,65.00
             57.07,60.93 56.43,58.49 59.00,55.00
             60.67,60.87 59.52,70.04 58.10,76.00
             56.34,83.39 53.88,85.45 57.00,93.00
             52.82,92.96 52.66,91.92 52.00,88.00
             49.97,89.98 47.55,92.56 45.00,93.83
             39.20,96.71 33.48,93.58 33.07,87.00
             32.81,82.73 38.45,60.08 39.80,55.00
             43.75,60.10 41.01,63.66 39.80,69.00 Z
           M 73.00,90.86
           C 82.36,93.16 87.18,87.32 84.67,82.09
             81.35,75.18 61.80,72.29 68.45,60.09
             73.61,50.63 90.20,56.41 85.00,65.00
             83.33,62.40 81.41,58.99 77.98,58.58
             74.31,58.13 69.83,62.19 71.17,66.00
             73.83,73.59 89.98,74.14 88.81,86.00
             87.82,96.03 69.23,99.31 62.00,86.00
             67.25,86.04 67.66,89.55 73.00,90.86 Z
           M 267.09,59.15
           C 264.55,62.89 261.71,80.30 262.06,85.00
             262.51,90.90 267.92,93.59 272.98,90.98
             280.93,86.87 281.05,72.68 281.00,65.00
             280.98,62.66 281.21,59.51 279.40,57.74
             277.07,55.45 272.96,55.97 270.11,56.60
             268.49,57.62 268.30,57.35 267.09,59.15 Z
           M 147.40,58.31
           C 149.46,60.76 149.13,65.99 148.70,69.00
             147.52,77.27 144.35,90.37 135.99,94.07
             128.79,97.25 120.97,93.48 121.02,85.00
             121.08,75.11 124.88,61.77 133.99,56.87
             137.58,55.94 144.75,55.17 147.40,58.31 Z
           M 293.01,83.00
           C 293.02,87.81 293.24,91.60 299.01,91.93
             300.42,92.01 302.50,91.84 303.79,91.26
             307.19,89.73 308.44,85.34 309.22,82.00
             310.29,77.00 313.74,61.54 309.22,57.80
             307.33,56.46 304.26,57.12 302.10,57.80
             295.54,61.66 292.99,75.61 293.01,83.00 Z
           M 332.34,58.98
           C 327.36,62.33 326.00,73.43 326.00,79.00
             326.00,86.33 326.85,92.56 336.00,91.94
             342.40,91.50 343.97,86.38 345.56,81.00
             348.33,71.67 352.06,57.96 338.00,57.38
             336.05,57.66 334.03,57.85 332.34,58.98 Z
           M 134.05,60.02
           C 128.41,62.27 124.73,76.32 124.17,82.00
             123.96,84.08 123.75,87.66 124.99,89.43
             127.17,92.54 136.65,94.87 141.38,84.00
             142.65,81.10 143.61,78.08 144.35,75.00
             145.60,69.74 145.95,67.39 146.00,62.00
             141.91,61.54 138.29,58.34 134.05,60.02 Z
           M 144.00,59.00
           C 144.00,59.00 145.00,60.00 145.00,60.00
             145.00,60.00 145.00,59.00 145.00,59.00
             145.00,59.00 144.00,59.00 144.00,59.00 Z
           M 161.00,63.00
           C 166.79,58.44 171.72,56.67 176.00,64.00
             181.48,59.87 191.05,56.93 193.57,66.00
             195.32,72.32 191.17,90.12 187.00,95.00
             184.90,86.05 193.07,75.57 190.57,67.06
             188.58,60.29 179.72,63.42 177.60,69.02
             175.13,75.52 180.04,84.70 172.00,92.00
             172.00,92.00 173.99,73.00 173.99,73.00
             173.76,63.72 168.33,57.40 161.85,68.00
             159.03,72.63 158.10,86.68 153.00,96.00
             153.00,96.00 150.00,95.00 150.00,95.00
             153.67,86.34 155.91,78.27 157.54,69.00
             158.36,64.30 157.52,63.23 159.00,58.00
             159.00,58.00 161.00,63.00 161.00,63.00 Z
           M 145.00,60.00
           C 145.00,60.00 146.00,61.00 146.00,61.00
             146.00,61.00 146.00,60.00 146.00,60.00
             146.00,60.00 145.00,60.00 145.00,60.00 Z" />
</svg>
